<?xml version="1.0" standalone="no"?>
<!DOCTYPE svg PUBLIC "-//W3C//DTD SVG 20010904//EN"
 "http://www.w3.org/TR/2001/REC-SVG-20010904/DTD/svg10.dtd">
<svg version="1.0" xmlns="http://www.w3.org/2000/svg"
 width="1491.027858pt" height="1612.146811pt" viewBox="0 0 1491.027858 1612.146811"
 preserveAspectRatio="xMidYMid meet">

<g transform="translate(-256.319997,1812.747290) scale(0.100000,-0.100000)"
fill="#000000" stroke="none">
<path d="M10857 18111 c-109 -36 -215 -121 -442 -353 -259 -264 -339 -359
-546 -648 -265 -371 -413 -646 -542 -1005 -57 -159 -118 -376 -137 -489 -22
-129 -52 -309 -66 -396 -26 -159 -56 -240 -131 -345 -56 -77 -193 -224 -242
-257 -39 -28 -46 -30 -80 -19 -87 26 -123 31 -232 31 -233 0 -469 -51 -678
-147 -190 -87 -223 -96 -295 -77 -279 73 -766 50 -1156 -52 -588 -155 -1258
-525 -1815 -1003 -194 -166 -564 -567 -736 -796 -249 -333 -476 -724 -623
-1075 -27 -63 -59 -137 -71 -165 -98 -217 -232 -624 -290 -875 -9 -41 -21 -91
-26 -110 -18 -72 -64 -319 -94 -500 -111 -671 -120 -1236 -34 -1930 25 -203
88 -559 129 -735 5 -22 23 -101 40 -175 94 -417 223 -807 387 -1175 279 -625
699 -1239 1178 -1721 271 -273 407 -388 814 -685 101 -74 209 -153 240 -176
77 -57 441 -301 524 -352 202 -123 548 -267 826 -343 110 -31 126 -32 301 -33
179 -2 186 -2 225 -27 64 -40 222 -120 320 -162 120 -52 207 -81 345 -116 214
-55 280 -63 495 -63 240 -1 378 17 579 75 l68 19 61 -37 c222 -137 457 -187
872 -188 238 0 348 9 490 41 134 30 172 46 372 154 l61 34 69 -19 c195 -53
398 -79 618 -79 177 0 223 5 420 47 223 48 572 184 706 276 l59 40 122 0 c175
0 324 28 552 104 96 32 120 41 193 72 17 8 34 14 37 14 6 0 111 47 206 93 36
17 94 48 130 69 36 21 71 42 77 46 89 52 502 332 688 466 260 187 587 450 731
588 186 179 474 504 631 713 113 151 312 454 394 600 67 120 269 517 269 529
0 2 16 40 36 83 151 326 363 1013 434 1408 75 415 102 619 141 1050 17 175 16
727 0 895 -19 204 -41 410 -51 485 -5 39 -12 93 -15 120 -3 28 -10 73 -15 100
-5 28 -17 91 -25 140 -28 162 -88 422 -130 565 -42 143 -68 227 -75 245 -5 11
-18 49 -30 84 -32 96 -127 345 -163 425 -17 39 -81 170 -142 291 -296 586
-558 955 -970 1370 -179 180 -221 220 -345 325 -187 159 -539 413 -690 497
-19 11 -80 46 -135 78 -116 67 -401 211 -493 250 -241 100 -430 156 -664 197
-120 21 -163 23 -438 23 -248 0 -318 -4 -375 -17 l-70 -17 -150 58 c-254 98
-312 117 -458 145 -155 30 -256 39 -360 31 -56 -4 -124 -8 -151 -9 l-50 -1
-117 129 c-128 140 -173 215 -223 371 -51 162 -61 235 -60 455 1 217 9 284 61
479 68 261 201 525 396 789 38 51 192 249 290 370 87 109 112 181 95 274 -13
68 -37 115 -85 159 -53 50 -72 60 -212 113 -219 83 -266 112 -408 249 -45 44
-97 89 -115 100 -48 29 -155 33 -231 8z m114 -520 c92 -80 247 -173 362 -216
26 -10 47 -24 47 -32 0 -8 -35 -55 -78 -106 -271 -319 -450 -623 -563 -952
-24 -72 -40 -132 -69 -260 -30 -135 -43 -271 -43 -460 -1 -249 16 -366 81
-585 53 -180 131 -311 297 -499 36 -41 65 -80 65 -87 0 -7 -12 -22 -26 -33
-25 -20 -234 -105 -352 -143 l-63 -20 -36 25 c-96 69 -204 283 -258 513 -41
178 -57 488 -35 706 13 122 37 297 50 353 5 22 16 74 25 115 32 145 130 450
184 575 5 11 26 61 46 110 36 86 54 128 132 295 82 175 120 300 92 300 -50 0
-291 -219 -436 -395 -115 -141 -248 -372 -361 -625 -18 -42 -87 -243 -125
-368 -47 -152 -77 -361 -102 -717 -25 -345 -54 -488 -135 -663 -69 -148 -154
-222 -238 -208 -49 9 -244 85 -274 107 l-23 18 19 35 c10 19 46 70 80 113 150
191 207 284 262 429 44 116 54 163 99 444 59 378 129 602 290 937 133 277 327
577 524 813 143 171 484 520 508 520 6 0 30 -17 54 -39z m-2365 -3495 c44 -8
107 -22 140 -31 32 -9 78 -21 101 -27 82 -19 348 -134 347 -149 -1 -8 -46 -77
-101 -154 -150 -210 -283 -434 -392 -658 -112 -230 -131 -276 -213 -512 -65
-186 -104 -319 -148 -495 -44 -179 -53 -229 -54 -312 -1 -90 19 -127 76 -142
44 -11 91 13 125 63 19 29 62 149 91 256 21 76 114 379 149 485 106 322 369
844 544 1080 73 100 237 296 271 325 93 80 129 107 175 130 52 25 52 26 335
28 322 2 306 5 438 -88 179 -127 310 -265 455 -480 117 -174 229 -375 318
-570 37 -82 78 -170 89 -195 67 -145 163 -425 238 -691 65 -232 83 -280 117
-317 31 -32 36 -34 80 -29 36 4 53 12 71 33 24 27 24 32 19 139 -6 103 -24
194 -82 400 -10 33 -21 74 -25 90 -27 105 -137 395 -221 585 -138 310 -361
688 -523 885 -104 126 -102 122 -80 146 23 25 176 100 259 127 163 53 293 72
500 72 312 0 488 -47 845 -225 391 -195 779 -466 1165 -814 103 -93 374 -369
446 -456 159 -189 348 -454 444 -620 66 -114 225 -424 274 -535 49 -112 158
-395 211 -550 128 -371 223 -810 285 -1320 42 -343 50 -429 66 -710 13 -224 6
-922 -10 -1100 -47 -500 -57 -572 -115 -895 -37 -201 -82 -394 -161 -680 -29
-105 -126 -386 -203 -585 -229 -596 -552 -1174 -886 -1585 -237 -291 -544
-584 -846 -806 -374 -276 -907 -518 -1300 -590 -108 -20 -507 -18 -619 3 -45
9 -88 21 -94 27 -12 12 -14 9 105 137 135 147 258 332 373 562 137 274 237
539 250 663 9 85 -8 109 -83 117 -51 4 -54 4 -91 -37 -26 -28 -88 -142 -190
-346 -220 -441 -351 -633 -624 -908 -219 -221 -349 -307 -517 -341 -103 -22
-677 -23 -795 -2 -219 39 -372 142 -609 411 -79 89 -175 214 -258 335 -88 129
-153 247 -314 565 -117 230 -154 289 -193 310 -68 35 -131 0 -131 -74 0 -63
36 -204 80 -312 12 -30 29 -72 38 -94 36 -93 166 -352 226 -450 79 -129 261
-378 334 -456 l53 -58 -25 -16 c-79 -52 -379 -79 -604 -54 -186 20 -491 109
-727 212 -702 307 -1379 958 -1842 1769 -335 589 -536 1094 -709 1783 -19 77
-39 156 -44 175 -4 19 -16 76 -25 125 -9 50 -20 110 -25 135 -6 25 -19 104
-30 175 -11 72 -24 157 -29 190 -25 159 -56 490 -72 778 -11 214 -15 790 -5
878 4 30 11 119 16 199 15 231 45 518 74 705 30 202 67 401 110 595 9 41 21
95 26 120 45 223 194 701 270 865 5 11 30 72 56 135 282 697 789 1363 1428
1875 177 141 426 312 616 424 117 68 406 211 515 254 246 98 561 140 771 103z
m-1499 -123 c2 -6 -36 -37 -84 -69 -343 -224 -422 -279 -573 -403 -590 -482
-993 -999 -1351 -1736 -138 -285 -242 -559 -335 -885 -15 -52 -35 -122 -44
-155 -81 -278 -160 -670 -214 -1055 -22 -159 -33 -254 -67 -585 -16 -163 -23
-897 -10 -1110 23 -385 31 -471 72 -795 100 -808 379 -1733 722 -2401 166
-324 288 -525 543 -896 85 -124 106 -151 228 -298 179 -214 271 -314 381 -412
32 -29 56 -55 53 -59 -15 -14 -238 125 -703 436 -137 92 -275 185 -306 206
-31 22 -85 59 -120 83 -468 323 -898 762 -1255 1281 -40 58 -214 339 -214 345
0 3 -11 22 -23 43 -42 66 -115 207 -162 313 -26 57 -58 129 -72 159 -208 456
-406 1153 -482 1700 -51 365 -66 521 -82 857 -17 347 2 729 51 1043 117 746
257 1269 461 1716 77 169 232 476 279 554 397 648 874 1152 1445 1525 126 82
195 124 320 196 421 240 836 380 1225 412 101 8 313 2 317 -10z m6233 -4 c463
-41 931 -230 1480 -600 296 -199 497 -370 786 -669 137 -141 189 -203 334
-395 212 -280 298 -422 490 -810 171 -346 304 -710 413 -1135 47 -180 103
-473 138 -725 101 -713 68 -1500 -97 -2335 -25 -124 -104 -453 -131 -545 -42
-139 -173 -521 -203 -590 -5 -11 -30 -72 -56 -135 -143 -354 -397 -781 -689
-1160 -332 -429 -755 -822 -1244 -1155 -57 -38 -187 -130 -289 -204 -312 -224
-344 -246 -439 -305 -51 -32 -97 -55 -102 -52 -5 4 63 79 151 169 432 437 754
897 1067 1524 56 112 101 205 101 207 0 2 22 51 49 108 187 397 334 839 455
1378 52 229 60 272 81 405 8 55 20 125 25 155 27 159 56 428 81 750 17 205 17
864 1 1050 -21 239 -42 459 -53 560 -25 229 -72 528 -115 735 -9 44 -20 100
-25 124 -17 85 -88 357 -113 433 -7 23 -28 90 -46 148 -61 200 -164 483 -220
605 -202 437 -353 699 -593 1030 -134 184 -293 363 -537 604 -299 295 -524
477 -902 729 -131 87 -151 106 -128 114 18 6 202 -1 330 -13z"/>
<path d="M6864 11908 c-54 -37 -169 -182 -275 -349 -36 -57 -117 -183 -179
-279 -159 -246 -635 -1030 -747 -1230 -68 -120 -113 -239 -113 -296 0 -23 10
-44 31 -69 58 -65 95 -78 494 -170 67 -16 611 -124 750 -150 50 -9 122 -23
160 -30 39 -8 131 -25 205 -39 262 -50 646 -128 845 -172 121 -26 132 -29 260
-58 121 -28 269 -56 298 -56 121 0 165 115 102 267 -16 38 -31 73 -35 78 -13
18 -133 227 -353 615 -74 131 -217 367 -477 785 -457 735 -732 1121 -834 1169
-50 23 -78 20 -132 -16z"/>
<path d="M13148 11878 c-95 -93 -302 -398 -588 -863 -84 -137 -168 -273 -186
-300 -100 -156 -502 -851 -667 -1155 -16 -30 -47 -85 -69 -122 -104 -180 -133
-274 -105 -341 25 -60 53 -71 160 -64 51 3 135 16 187 28 52 12 111 25 130 29
19 4 69 16 110 25 100 23 257 55 475 99 99 19 203 40 230 46 112 22 390 75
560 105 164 29 189 34 270 49 44 8 107 19 140 25 88 16 363 69 415 80 266 58
335 79 398 124 24 18 50 44 58 59 17 33 18 107 2 162 -21 73 -177 352 -319
573 -44 67 -79 124 -79 128 0 3 -21 38 -47 78 -65 101 -98 153 -189 297 -287
457 -603 893 -697 961 -31 22 -51 29 -88 29 -45 0 -52 -4 -101 -52z"/>
<path d="M10073 9118 c-23 -25 -70 -104 -135 -231 -23 -45 -73 -138 -111 -207
-39 -69 -84 -150 -100 -180 -16 -30 -44 -80 -62 -110 -63 -106 -294 -576 -314
-639 -12 -35 -21 -77 -21 -92 0 -46 29 -106 63 -131 96 -71 162 -78 722 -78
516 1 584 6 676 56 99 54 131 129 102 241 -17 69 -141 327 -256 534 -35 63
-79 143 -99 179 -19 36 -55 101 -80 145 -54 94 -68 120 -161 285 -121 216
-145 250 -176 250 -16 0 -37 -10 -48 -22z"/>
<path d="M14522 7853 c-304 -266 -452 -374 -794 -584 -157 -96 -191 -115 -343
-195 -114 -59 -207 -103 -465 -217 -67 -29 -177 -72 -330 -127 -230 -83 -283
-105 -294 -122 -11 -19 -1 -67 44 -208 14 -47 32 -103 39 -125 7 -22 11 -53 9
-69 -4 -36 -37 -50 -283 -117 -99 -27 -216 -60 -260 -73 -44 -13 -118 -35
-165 -49 -47 -14 -112 -33 -145 -42 -33 -9 -70 -21 -83 -26 -13 -5 -36 -9 -53
-9 -26 0 -32 6 -53 53 -12 28 -29 68 -36 87 -7 19 -18 49 -25 65 -7 17 -20 50
-28 75 -38 110 -69 196 -78 212 -20 38 -42 39 -166 8 -180 -45 -320 -77 -403
-94 -266 -52 -597 -55 -840 -6 -25 5 -85 16 -135 25 -126 23 -202 41 -337 81
-136 40 -148 38 -180 -33 -11 -24 -35 -106 -54 -181 -44 -175 -74 -269 -88
-281 -7 -6 -30 -4 -61 4 -84 24 -395 113 -480 139 -44 13 -107 31 -140 41 -33
9 -71 20 -85 25 -14 4 -52 16 -85 25 -33 9 -87 27 -120 39 -77 28 -78 37 -26
203 50 163 57 217 32 242 -10 10 -81 39 -157 64 -744 241 -1544 678 -2119
1157 -136 113 -163 132 -188 128 -52 -7 -24 -135 99 -446 144 -366 277 -633
430 -864 101 -152 227 -327 287 -398 177 -208 403 -434 562 -561 227 -182 679
-465 762 -476 47 -6 67 13 142 139 28 48 60 90 71 93 29 9 97 -10 310 -90 160
-60 248 -88 389 -126 63 -16 118 -32 123 -35 11 -7 9 -98 -3 -154 -26 -122
-42 -228 -36 -242 5 -15 87 -52 152 -68 17 -4 64 -17 105 -28 41 -11 113 -28
160 -37 47 -9 103 -20 125 -25 22 -5 74 -12 116 -16 l75 -6 27 32 c42 50 82
141 121 283 22 75 39 84 138 69 198 -31 523 -38 898 -20 l54 3 23 -80 c13 -44
31 -107 40 -140 19 -70 45 -126 67 -144 18 -15 140 -2 291 30 50 11 104 22
120 26 59 11 281 75 312 90 18 8 35 24 39 35 10 32 -4 115 -42 249 -19 67 -34
126 -34 131 0 20 66 40 275 84 112 23 262 68 364 108 108 44 238 86 262 86 11
0 24 -14 35 -37 72 -162 95 -203 118 -209 89 -22 417 160 781 435 472 355 818
783 1116 1381 148 297 264 621 300 842 10 63 10 79 0 92 -8 9 -20 16 -27 16
-7 0 -85 -62 -172 -137z"/>
</g>
</svg>
